PathFileType	4	(X/Y/Z)	s03c0101.trc
DataRate	CameraRate	NumFrames	NumMarkers	Units	OrigDataRate	OrigDataStartFrame	OrigNumFrames
200	200	4	52	mm	200	0	2000
Frame#	Time	racr			lacr			c7			jug			rlel			rdr			llel			ldr			s2			lic			ric			lasi			rasi			rpsi			lpsi			rgt			lgt			rth1			rth2			rth3			rth4			rlfc			rmfc			rsh1			rsh2			rsh3			rsh4			rlmal			rmmal			rcal			rtoe			rmt5			rmt1			lth1			lth2			lth4			lth3			llfc			lmfc			lsh1			lsh2			lsh3			lsh4			llmal			lmmal			lcal			ltoe			lmt1			lmt5			SBIKE			LBIKE			RBIKE			
		X1	Y1	Z1	X2	Y2	Z2	X3	Y3	Z3	X4	Y4	Z4	X5	Y5	Z5	X6	Y6	Z6	X7	Y7	Z7	X8	Y8	Z8	X9	Y9	Z9	X10	Y10	Z10	X11	Y11	Z11	X12	Y12	Z12	X13	Y13	Z13	X14	Y14	Z14	X15	Y15	Z15	X16	Y16	Z16	X17	Y17	Z17	X18	Y18	Z18	X19	Y19	Z19	X20	Y20	Z20	X21	Y21	Z21	X22	Y22	Z22	X23	Y23	Z23	X24	Y24	Z24	X25	Y25	Z25	X26	Y26	Z26	X27	Y27	Z27	X28	Y28	Z28	X29	Y29	Z29	X30	Y30	Z30	X31	Y31	Z31	X32	Y32	Z32	X33	Y33	Z33	X34	Y34	Z34	X35	Y35	Z35	X36	Y36	Z36	X37	Y37	Z37	X38	Y38	Z38	X39	Y39	Z39	X40	Y40	Z40	X41	Y41	Z41	X42	Y42	Z42	X43	Y43	Z43	X44	Y44	Z44	X45	Y45	Z45	X46	Y46	Z46	X47	Y47	Z47	X48	Y48	Z48	X49	Y49	Z49	X50	Y50	Z50	X51	Y51	Z51	X52	Y52	Z52	
0	0.0000	480.145639	1393.768570	-84.833823	477.556014	1409.133661	-415.330033	423.847048	1494.936312	-244.484935	462.017190	1327.808920	-241.517213	515.332952	1132.933983	16.996608	739.819271	952.570631	-34.528078	534.081411	1147.613716	-488.591200	746.595012	935.238333	-430.119641	-86.863775	1207.877963	-247.725637	95.952168	1213.499138	-426.697674	90.083484	1234.180051	-63.318835	106.655515	1134.580470	-393.874138	101.341477	1168.972716	-107.464009	-59.602907	1259.897418	-203.648201	-50.587714	1255.014968	-286.757318	27.913212	1162.905842	-44.323627	29.243657	1102.029408	-440.566082	146.637884	1078.609488	-18.277938	235.198450	1072.114532	-12.449020	308.109096	1026.187279	-9.719198	247.874655	1104.146965	-26.157513	429.523538	960.108550	-24.055034	441.462812	948.541052	-151.990794	357.935662	810.716850	-14.222641	335.371994	727.245242	-34.702250	270.354557	666.420719	-43.634852	360.035567	716.286437	-61.681812	199.425786	555.673193	-72.377859	224.057286	572.320124	-159.867998	132.025467	510.055944	-117.448569	441.768767	508.610795	-111.882667	321.898017	489.886789	-44.863728	349.152039	507.196935	-158.842583	98.273430	957.114010	-463.291592	156.889287	893.203039	-465.630447	189.406897	910.209317	-461.305133	177.280251	806.928840	-453.831078	251.126484	698.956412	-437.226339	257.335495	690.732984	-314.986832	166.571814	546.132707	-454.841496	156.742976	463.534300	-435.152472	102.657198	390.511625	-424.435070	186.959473	455.334325	-411.939783	45.943975	278.588012	-399.997346	82.943151	289.106317	-311.904958	-24.946816	243.328414	-349.559794	279.540151	186.637398	-358.347323	188.984882	199.775371	-314.508068	155.151203	181.133350	-426.801033	-212.189839	945.662348	-230.646985	-7.031807	80.222079	-430.881963	-6.839019	80.747609	-30.976923	
1	0.0050	480.158260	1393.812122	-84.771768	477.602972	1409.173417	-415.401149	423.877787	1494.967173	-244.520906	462.044240	1327.826514	-241.531471	514.933613	1132.871996	17.230242	739.695947	952.818467	-33.931369	534.174721	1147.644632	-488.586843	746.647141	935.200873	-430.076395	-86.599289	1207.805925	-247.513982	96.021496	1213.504825	-426.688066	90.256715	1234.089613	-63.234429	106.780971	1134.582375	-393.880661	101.467661	1168.982773	-107.326012	-59.506633	1259.843375	-203.544908	-50.529711	1254.978118	-286.640156	28.061399	1162.795323	-44.263927	29.356648	1102.051749	-440.516384	146.781291	1078.493310	-18.240530	235.319404	1071.989969	-12.439549	308.230969	1026.056243	-9.759450	248.005208	1104.024668	-26.138775	429.676997	959.945234	-24.143622	441.546237	948.415082	-152.063930	358.054547	810.600891	-14.262777	335.471685	727.131848	-34.742174	270.444469	666.329351	-43.642802	360.125577	716.191524	-61.731587	199.481657	555.591029	-72.362925	224.138358	572.205950	-159.873184	132.102386	509.947673	-117.419117	441.843538	508.578534	-111.891496	321.982156	489.814675	-44.884399	349.214418	507.135841	-158.842223	98.413076	957.135882	-463.247560	157.042030	893.244192	-465.620201	189.557397	910.257205	-461.250874	177.458959	806.962887	-453.807795	251.283466	698.984286	-437.245244	257.471281	690.741428	-314.967567	166.690225	546.192091	-454.841936	156.952654	463.996991	-435.356269	102.698443	390.596986	-424.430410	186.464090	454.673195	-410.791994	45.950408	278.698406	-399.991638	82.933235	289.213886	-311.913928	-24.968577	243.468364	-349.591042	279.505517	186.611933	-358.322431	188.933714	199.819041	-314.522436	155.094667	181.176020	-426.810517	-212.185606	945.658841	-230.634199	-7.036555	80.211894	-430.884006	-6.829599	80.735644	-30.994672	
2	0.0100	480.219593	1393.864100	-84.709182	477.642670	1409.207577	-415.420296	423.929709	1494.995323	-244.510970	462.156202	1327.853656	-241.575174	514.556331	1132.812332	17.447909	739.612894	953.078423	-33.329923	534.268501	1147.687908	-488.578370	746.720345	935.162863	-430.049716	-86.478574	1207.758991	-247.423287	96.063064	1213.520974	-426.666691	90.412111	1234.022057	-63.159040	106.865055	1134.581847	-393.836729	101.568948	1168.940924	-107.191523	-59.425201	1259.801289	-203.409554	-50.467024	1254.952930	-286.547025	28.214044	1162.691125	-44.174993	29.466637	1102.060002	-440.457090	146.893608	1078.372234	-18.205238	235.429008	1071.866075	-12.422103	308.353334	1025.911475	-9.774881	248.141860	1103.903266	-26.114426	429.828017	959.839271	-24.202074	441.629461	948.325101	-152.148242	358.163260	810.497475	-14.306903	335.558956	727.034811	-34.782047	270.496817	666.266582	-43.662693	360.200553	716.094378	-61.786285	199.538005	555.515444	-72.382508	224.195762	572.126674	-159.880314	132.140383	509.852683	-117.425806	441.898432	508.556603	-111.898240	322.044245	489.762072	-44.903761	349.273736	507.080381	-158.851807	98.534230	957.161140	-463.216125	157.186613	893.269455	-465.571514	189.684843	910.297726	-461.202402	177.615451	806.974752	-453.796270	251.446959	698.999675	-437.211293	257.610921	690.773834	-314.959871	166.810447	546.242124	-454.827583	157.026371	464.041693	-435.348918	102.751426	390.656380	-424.413041	186.544645	454.727480	-410.784569	45.965057	278.800974	-400.016596	82.939392	289.288644	-311.915246	-24.995837	243.595671	-349.617380	279.462843	186.608450	-358.347644	188.906450	199.874801	-314.565059	155.053577	181.230143	-426.828940	-212.182803	945.654965	-230.630108	-7.034097	80.239883	-430.878318	-6.840106	80.744732	-30.980103	
3	0.0150	480.278419	1393.892516	-84.646906	478.071935	1408.685736	-413.527094	423.979939	1495.023697	-244.882106	459.706380	1327.718164	-243.038414	514.185122	1132.769092	17.674609	739.539248	953.265274	-32.775900	534.366857	1147.728266	-488.551762	746.758830	935.112177	-429.979317	-85.705883	1209.243992	-246.680932	95.477599	1213.937483	-427.570831	90.970405	1233.895842	-63.026730	105.131084	1132.777892	-390.069487	101.735080	1168.853938	-107.168314	-59.324299	1259.755498	-203.296312	-50.408025	1254.921445	-286.430675	28.363383	1162.590264	-44.096835	29.644684	1102.503824	-441.299426	146.953440	1078.199742	-18.156748	235.591981	1071.708694	-12.426523	308.603776	1025.764828	-9.681713	247.484459	1104.144674	-26.844602	429.932723	959.543404	-24.148410	441.714330	948.243742	-152.205654	358.243705	810.405081	-14.321471	335.638360	726.940465	-34.821294	270.561196	666.199079	-43.678827	361.509795	716.941439	-61.685508	199.504715	555.468023	-72.275201	224.302778	572.069626	-159.803522	132.186540	509.782770	-117.425476	441.948503	508.537509	-111.905087	321.831065	489.813278	-44.768406	349.312427	507.051714	-158.849175	98.640823	957.177933	-463.231482	157.864293	892.446200	-463.813133	190.277705	909.766960	-460.034925	177.762053	806.975321	-453.777268	252.165141	698.385898	-435.953875	257.722736	690.788430	-314.942210	167.543867	545.417344	-453.332193	156.538380	461.301734	-431.051072	102.792293	390.719642	-424.413188	186.275324	452.456088	-407.078930	45.193013	280.019021	-401.534263	82.885151	289.376884	-311.909252	-25.006504	243.711050	-349.639036	279.887525	186.558847	-358.153864	188.879056	199.874191	-314.548635	155.727698	179.581924	-424.578647	-212.276290	945.711293	-231.091797	-7.025566	80.200074	-430.878169	-6.830070	80.735982	-30.990361	
